<svg xmlns="http://www.w3.org/2000/svg" xmlns:xlink="http://www.w3.org/1999/xlink">
  <symbol viewBox="0 0 16 16" id="project" xmlns="http://www.w3.org/2000/svg">
    <path fill-rule="evenodd" clip-rule="evenodd"
      d="M9.5 14.5l-6-2.5V4l6-2.5v13zm-6.885-1.244A1 1 0 0 1 2 12.333V3.667a1 1 0 0 1 .615-.923L8.923.115A1.5 1.5 0 0 1 11 1.5V2h1.25c.966 0 1.75.783 1.75 1.75v8.5A1.75 1.75 0 0 1 12.25 14H11v.5a1.5 1.5 0 0 1-2.077 1.385l-6.308-2.629zM11 12.5h1.25a.25.25 0 0 0 .25-.25v-8.5a.25.25 0 0 0-.25-.25H11v9z" />
  </symbol>
  <symbol viewBox="0 0 16 16" id="subgroup" xmlns="http://www.w3.org/2000/svg">
    <path fill-rule="evenodd" clip-rule="evenodd"
      d="M6 4a1.5 1.5 0 1 1-3 0 1.5 1.5 0 0 1 3 0zm1.5 0a3 3 0 1 1-6 0 3 3 0 0 1 6 0zm7 4a3 3 0 1 1-6 0 3 3 0 0 1 6 0zm-10 5.5a1.5 1.5 0 1 0 0-3 1.5 1.5 0 0 0 0 3zm0 1.5a3 3 0 1 0 0-6 3 3 0 0 0 0 6z" />
  </symbol>
  <symbol viewBox="0 0 16 16" id="group" xmlns="http://www.w3.org/2000/svg">
    <path fill-rule="evenodd" clip-rule="evenodd"
      d="M6 4a1.5 1.5 0 1 1-3 0 1.5 1.5 0 0 1 3 0zm1.5 0a3 3 0 1 1-6 0 3 3 0 0 1 6 0zm4 5.5a1.5 1.5 0 1 0 0-3 1.5 1.5 0 0 0 0 3zm0 1.5a3 3 0 1 0 0-6 3 3 0 0 0 0 6zm-7 2.5a1.5 1.5 0 1 0 0-3 1.5 1.5 0 0 0 0 3zm0 1.5a3 3 0 1 0 0-6 3 3 0 0 0 0 6z" />
  </symbol>
</svg>
